<svg width="284" height="284" viewBox="0 0 284 284" fill="none" xmlns="http://www.w3.org/2000/svg">
<mask id="mask0_76_2504" style="mask-type:luminance" maskUnits="userSpaceOnUse" x="0" y="0" width="284" height="284">
<path d="M0 0H283.678V283.713H0V0Z" fill="white"/>
</mask>
<g mask="url(#mask0_76_2504)">
<path d="M283.507 142.22C283.507 144.212 283.464 146.207 283.382 148.195C283.296 150.187 283.172 152.175 283.004 154.163C282.837 156.148 282.626 158.129 282.373 160.107C282.124 162.084 281.828 164.055 281.493 166.021C281.158 167.985 280.784 169.941 280.367 171.89C279.951 173.839 279.491 175.781 278.992 177.708C278.493 179.639 277.952 181.556 277.371 183.463C276.79 185.369 276.17 187.264 275.511 189.142C274.852 191.023 274.15 192.891 273.412 194.74C272.671 196.593 271.894 198.428 271.079 200.245C270.263 202.062 269.407 203.861 268.513 205.643C267.622 207.428 266.692 209.188 265.727 210.93C264.758 212.673 263.756 214.394 262.716 216.097C261.676 217.796 260.6 219.475 259.491 221.128C258.38 222.785 257.236 224.413 256.057 226.02C254.877 227.627 253.662 229.209 252.415 230.762C251.172 232.32 249.893 233.848 248.581 235.348C247.27 236.848 245.93 238.323 244.555 239.766C243.183 241.209 241.779 242.627 240.347 244.01C238.915 245.396 237.454 246.75 235.964 248.075C234.475 249.397 232.957 250.691 231.414 251.948C229.868 253.21 228.297 254.436 226.704 255.629C225.108 256.823 223.487 257.981 221.84 259.103C220.194 260.229 218.527 261.319 216.838 262.374C215.145 263.425 213.432 264.444 211.7 265.428C209.965 266.407 208.212 267.352 206.437 268.26C204.663 269.169 202.871 270.038 201.061 270.872C199.251 271.702 197.423 272.497 195.577 273.252C193.731 274.004 191.875 274.72 190.001 275.397C188.127 276.074 186.238 276.708 184.336 277.307C182.433 277.902 180.523 278.458 178.595 278.974C176.671 279.491 174.737 279.965 172.791 280.4C168.954 281.273 165.052 281.971 161.094 282.498C155.329 283.282 149.535 283.703 143.716 283.76C143.139 283.781 142.562 283.781 141.985 283.781C135.707 283.781 129.457 283.368 123.232 282.545C118.718 281.953 114.282 281.148 109.921 280.129C105.378 279.081 100.903 277.809 96.488 276.309C94.4463 275.618 92.4225 274.88 90.4165 274.093C88.4069 273.309 86.4187 272.479 84.4519 271.602C82.4815 270.726 80.5325 269.803 78.6049 268.841C76.6773 267.875 74.7746 266.867 72.8933 265.812C71.012 264.761 69.1556 263.667 67.3242 262.531C65.4928 261.391 63.6863 260.215 61.9083 258.996C60.1339 257.774 58.3845 256.516 56.6635 255.216C54.9425 253.915 53.2536 252.579 51.5968 251.204C49.9364 249.825 48.3081 248.41 46.7154 246.96C45.1191 245.51 43.5621 244.024 42.0335 242.503C40.5085 240.978 39.0156 239.421 37.5619 237.832C36.1046 236.242 34.6865 234.618 33.3076 232.964C31.9251 231.308 30.5818 229.622 29.2777 227.905C27.9736 226.191 26.7087 224.445 25.4866 222.671C24.2609 220.896 23.078 219.093 21.9342 217.266C20.794 215.438 19.6931 213.585 18.6348 211.704C17.5766 209.826 16.5647 207.923 15.592 205.999C14.6228 204.075 13.6964 202.13 12.8128 200.159C11.9327 198.192 11.0954 196.208 10.3044 194.202C9.51335 192.196 8.76867 190.172 8.07031 188.134C7.37194 186.096 6.7199 184.04 6.11418 181.97C5.50846 179.9 4.95262 177.819 4.4431 175.724C3.93358 173.629 3.47038 171.523 3.05706 169.406C2.64375 167.29 2.28031 165.166 1.9632 163.036C1.64609 160.901 1.37886 158.763 1.16151 156.618C0.940597 154.473 0.76957 152.325 0.651989 150.173C0.530844 148.021 0.459583 145.865 0.434641 143.709C0.413263 141.554 0.441768 139.398 0.516592 137.242C0.591417 135.087 0.716124 132.938 0.890715 130.786C1.06531 128.638 1.28978 126.496 1.56057 124.355C1.83493 122.217 2.15561 120.086 2.52617 117.963C2.89316 115.839 3.3136 113.723 3.78037 111.617C4.24357 109.515 4.76021 107.42 5.31961 105.339C5.88258 103.258 6.49187 101.191 7.14747 99.1354C7.80308 97.0831 8.50856 95.045 9.25681 93.0247C10.0051 91.0009 10.7996 88.9985 11.6405 87.0138C12.4814 85.0292 13.3686 83.0624 14.2986 81.1169C15.2285 79.1715 16.2048 77.251 17.2238 75.3519C18.2393 73.4492 19.3011 71.575 20.4057 69.7222C21.5102 67.8694 22.6575 66.0451 23.844 64.2458C25.0305 62.4464 26.2598 60.6756 27.5282 58.9332C28.7967 57.1873 30.1043 55.4771 31.4512 53.7917C32.798 52.11 34.1805 50.4567 35.6022 48.8355C37.0238 47.2179 38.4847 45.6287 39.9776 44.0752C41.4741 42.5217 43.0027 41.0039 44.5669 39.5216C46.1311 38.0358 47.7273 36.5892 49.3556 35.1782C50.9875 33.7673 52.6479 32.3955 54.3404 31.0593C56.0328 29.7267 57.7574 28.4298 59.5068 27.1756C61.2599 25.9178 63.0378 24.7028 64.8479 23.527C66.6544 22.3512 68.4858 21.2217 70.3457 20.1278C72.2056 19.0375 74.0869 17.99 75.9967 16.9852C77.903 15.9804 79.8306 15.0184 81.7832 14.1027C83.7322 13.187 85.7025 12.314 87.6943 11.4874C89.6861 10.6607 91.6956 9.88042 93.7195 9.14643C95.7468 8.40887 97.7885 7.7212 99.8479 7.07985C101.904 6.43849 103.978 5.84346 106.062 5.29831C108.146 4.7496 110.241 4.25077 112.351 3.79826C114.457 3.34931 116.577 2.94668 118.7 2.59037C120.827 2.23763 122.962 1.93121 125.099 1.67466C127.241 1.41812 129.386 1.21146 131.534 1.05113C133.683 0.890787 135.835 0.783896 137.991 0.723324C140.146 0.662751 142.302 0.6485 144.458 0.687693C146.61 0.726887 148.765 0.812401 150.914 0.947797C153.066 1.08676 155.215 1.27204 157.356 1.50364C159.497 1.7388 161.635 2.02385 163.766 2.35521C165.893 2.68658 168.017 3.06783 170.13 3.49539C172.239 3.92653 174.341 4.40041 176.433 4.92775C178.524 5.45152 180.601 6.02518 182.664 6.64515C184.731 7.26513 186.78 7.93142 188.814 8.64403C190.845 9.35665 192.862 10.1191 194.864 10.9244C196.863 11.7297 198.841 12.5812 200.804 13.4756C202.764 14.3735 204.702 15.3141 206.619 16.2975C208.536 17.2845 210.431 18.3107 212.302 19.3831C214.173 20.4521 216.018 21.5673 217.836 22.7217C219.656 23.8797 221.448 25.0769 223.212 26.3133C224.979 27.5497 226.715 28.8288 228.421 30.1436C230.128 31.462 231.803 32.8159 233.449 34.2091C235.091 35.6022 236.706 37.0346 238.284 38.5026C239.862 39.967 241.409 41.4706 242.92 43.0099C244.43 44.5456 245.905 46.1169 247.345 47.7238C248.784 49.3272 250.185 50.9662 251.549 52.6337C252.914 54.3048 254.239 56.0044 255.526 57.7325C256.812 59.4641 258.059 61.2207 259.263 63.0094C260.471 64.7945 261.636 66.6081 262.759 68.4467C263.885 70.2888 264.964 72.1522 266.001 74.0407C267.042 75.9327 268.036 77.8425 268.987 79.7772C269.938 81.712 270.843 83.6681 271.706 85.6456C272.568 87.6195 273.384 89.6149 274.153 91.628C274.923 93.6447 275.65 95.6721 276.327 97.7209C277.004 99.7661 277.635 101.829 278.219 103.903C278.803 105.98 279.338 108.068 279.826 110.167C280.314 112.265 280.756 114.375 281.148 116.495C281.54 118.618 281.882 120.745 282.178 122.88C282.473 125.018 282.719 127.159 282.915 129.304C283.111 131.452 283.261 133.601 283.357 135.757C283.457 137.909 283.507 140.064 283.507 142.22Z" fill="#734FDB"/>
</g>
<mask id="mask1_76_2504" style="mask-type:luminance" maskUnits="userSpaceOnUse" x="95" y="176" width="82" height="108">
<path d="M95.7754 176.956H176.956V283.713H95.7754V176.956Z" fill="white"/>
</mask>
<g mask="url(#mask1_76_2504)">
<path d="M176.116 217.176C176.091 218.32 173.885 259.844 172.791 280.396C168.954 281.269 165.052 281.967 161.094 282.495C155.329 283.279 149.535 283.699 143.717 283.756C143.139 283.777 142.562 283.777 141.985 283.777C135.707 283.777 129.457 283.364 123.232 282.541C118.718 281.95 114.282 281.144 109.921 280.125C105.378 279.078 100.903 277.806 96.488 276.306V219.924L118.258 186.374L120.582 182.803L120.674 182.768L130.936 179.019L134.399 177.744H134.41L146.075 177.569L151.014 177.484L170.963 177.181C170.963 177.181 171.163 178.645 171.469 181.008C172.781 190.756 176.137 215.951 176.116 217.176Z" fill="#B8CCD1"/>
</g>
<mask id="mask2_76_2504" style="mask-type:luminance" maskUnits="userSpaceOnUse" x="123" y="183" width="22" height="101">
<path d="M123.14 183.341H144.119V283.713H123.14V183.341Z" fill="white"/>
</mask>
<g mask="url(#mask2_76_2504)">
<path d="M129.333 191.052L129.475 188.85L129.251 183.534L135.91 183.523C135.935 183.534 135.956 183.534 135.981 183.523C135.981 183.523 135.981 183.534 135.992 183.523L143.204 187.4L143.225 192.816L143.72 283.752C143.143 283.777 142.566 283.777 141.989 283.777C135.71 283.777 129.457 283.364 123.236 282.537L129.333 191.052Z" fill="#074453"/>
</g>
<path d="M120.991 181.342C120.888 181.82 120.781 182.283 120.674 182.768C119.979 185.868 119.32 189.049 118.718 192.288C112.721 224.082 110.637 260.963 109.921 280.125C105.378 279.078 100.903 277.806 96.4881 276.305C87.3737 273.206 78.6656 269.219 70.3672 264.341C62.0652 259.463 54.3405 253.798 47.1965 247.341C50.2501 233.306 55.3025 216.963 63.3479 206.843C77.6145 188.882 110.591 182.885 119.003 181.624C120.286 181.424 120.991 181.342 120.991 181.342Z" fill="#074453"/>
<path d="M250.947 232.565C245.98 238.569 240.55 244.124 234.66 249.23C228.771 254.336 222.503 258.921 215.855 262.99C209.206 267.059 202.272 270.555 195.046 273.473C187.82 276.395 180.402 278.704 172.795 280.396C168.957 281.269 165.056 281.967 161.097 282.495C158.151 264.38 155.596 228.617 168.968 183.627C169.592 181.496 170.258 179.347 170.971 177.181C170.971 177.181 172.043 177.341 173.928 177.701C184.343 179.643 219.599 187.482 236.342 206.537C242.724 213.816 247.47 223.198 250.947 232.565Z" fill="#074453"/>
<path d="M130.159 167.347C118.301 170.995 116.021 191.066 120.012 194.715C124.002 198.363 135.992 184.646 135.985 183.523C135.974 182.397 132.778 172.706 132.778 172.706L130.159 167.347Z" fill="white"/>
<path d="M101.262 95.4191C84.0991 91.9273 74.6427 77.0906 74.493 66.9038C74.3434 56.7134 94.2752 61.8122 94.2752 61.8122C94.2752 61.8122 83.9494 50.1752 90.4948 43.0419C97.0401 35.9051 109.258 50.7524 125.11 51.3296C140.966 51.9033 156.918 43.473 175.563 52.0565C194.205 60.6399 186.206 83.7714 186.206 83.7714C186.206 83.7714 196.678 83.3331 197.551 99.1924C198.424 115.052 181.791 138.625 175.563 147.062C169.335 155.5 146.905 156.964 141.903 143.435L101.262 95.4191Z" fill="#074453"/>
<path d="M123.546 156.212C128.866 168.986 129.625 178.563 132.668 182.212C135.707 185.86 146.197 181.453 154.402 175.064C162.612 168.679 164.892 166.855 163.524 159.558C162.156 152.261 159.116 143.895 159.875 135.988L123.546 156.212Z" fill="#E26664"/>
<path d="M95.2125 77.6678C108.025 97.4857 160.705 95.9678 160.705 95.9678C160.705 95.9678 163.16 118.821 165.444 118.861C167.725 118.903 168.084 101.89 181.296 104.769C194.508 107.651 192.662 124.597 185.223 130.882C177.787 137.171 168.305 130.9 168.305 130.9C168.305 130.9 157.862 165.066 127.704 164.012C103.824 163.178 95.0664 147.978 94.4179 126.4C93.7979 105.738 95.2125 77.6678 95.2125 77.6678Z" fill="#FFB5AB"/>
<path d="M162.939 156.754C163.905 172.136 135.08 182.251 135.985 183.527C136.886 184.802 146.46 199.055 150.793 197.455C155.126 195.859 173.034 181.838 174.455 176.472C175.873 171.109 162.939 156.754 162.939 156.754Z" fill="white"/>
</svg>
