<svg width="100" height="100" viewBox="0 0 100 100" fill="none" xmlns="http://www.w3.org/2000/svg">
<rect width="100" height="100" rx="50" fill="#9076DE" fill-opacity="0.24"/>
<path d="M79.6055 74.7197C75.7969 67.7907 69.8497 62.3918 62.7214 59.392C66.2662 56.6361 68.8847 52.7939 70.2059 48.4097C71.5271 44.0254 71.484 39.3214 70.0828 34.964C68.6816 30.6065 65.9933 26.8165 62.3986 24.1309C58.8039 21.4452 54.4852 20 50.0541 20C45.6231 20 41.3043 21.4452 37.7097 24.1309C34.115 26.8165 31.4267 30.6065 30.0255 34.964C28.6242 39.3214 28.5812 44.0254 29.9024 48.4097C31.2236 52.7939 33.842 56.6361 37.3869 59.392C30.2586 62.3918 24.3114 67.7907 20.5028 74.7197C20.2668 75.1131 20.1095 75.5516 20.0403 76.0092C19.971 76.4668 19.9913 76.9342 20.0998 77.3836C20.2083 77.8329 20.4028 78.2551 20.6719 78.6249C20.9409 78.9948 21.2789 79.3048 21.6659 79.5365C22.0528 79.7683 22.4807 79.917 22.9242 79.9739C23.3677 80.0307 23.8177 79.9946 24.2474 79.8676C24.6772 79.7406 25.0779 79.5253 25.4258 79.2346C25.7737 78.9438 26.0616 78.5835 26.2725 78.1751C31.306 69.1565 40.1953 63.7775 50.0541 63.7775C59.9129 63.7775 68.8022 69.1593 73.8358 78.1751C74.2928 78.9369 75.0176 79.4845 75.8571 79.7023C76.6966 79.9201 77.5848 79.791 78.3341 79.3423C79.0834 78.8935 79.635 78.1603 79.8723 77.2977C80.1095 76.435 80.0139 75.5106 79.6055 74.7197ZM35.609 41.8931C35.609 38.9316 36.4562 36.0366 38.0435 33.5742C39.6307 31.1118 41.8867 29.1926 44.5262 28.0593C47.1657 26.926 50.0702 26.6295 52.8722 27.2072C55.6743 27.785 58.2482 29.2111 60.2684 31.3052C62.2886 33.3993 63.6643 36.0673 64.2217 38.9719C64.7791 41.8765 64.493 44.8871 63.3997 47.6232C62.3064 50.3593 60.4549 52.6978 58.0794 54.3431C55.7039 55.9884 52.9111 56.8666 50.0541 56.8666C46.2244 56.8621 42.5528 55.283 39.8448 52.4759C37.1367 49.6688 35.6134 45.8629 35.609 41.8931Z" fill="#734FDB"/>
</svg>
